<svg xmlns="http://www.w3.org/2000/svg" version="1.1" xmlns:xlink="http://www.w3.org/1999/xlink" xmlns:svgjs="http://svgjs.dev/svgjs" width="1000" height="2008" viewBox="0 0 1000 2008"><g transform="matrix(1,0,0,1,1.1243122379954116,0.8129554655870379)"><svg viewBox="0 0 123 247" data-background-color="#ffffff" preserveAspectRatio="xMidYMid meet" height="2008" width="1000" xmlns="http://www.w3.org/2000/svg" xmlns:xlink="http://www.w3.org/1999/xlink"><g id="tight-bounds" transform="matrix(1,0,0,1,-0.1382904052734375,-0.09999999999999432)"><svg viewBox="0 0 123.27658 247.2" height="247.2" width="123.27658"><g><svg></svg></g><g><svg viewBox="0 0 123.27658 247.2" height="247.2" width="123.27658"><g transform="matrix(1,0,0,1,0,47.215199999999996)"><svg viewBox="0 0 123.27658 152.7696" height="152.7696" width="123.27658"><g><svg viewBox="0 0 123.27658 152.7696" height="152.7696" width="123.27658"><g><svg viewBox="0 0 123.27658 152.7696" height="152.7696" width="123.27658"><g><svg viewBox="0 0 123.27658 152.7696" height="152.7696" width="123.27658"><g id="textblocktransform"><svg viewBox="0 0 123.27658 152.7696" height="152.7696" width="123.27658" id="textblock"><g><svg viewBox="0 0 123.27658 152.7696" height="152.7696" width="123.27658"><g transform="matrix(1,0,0,1,0,0)"><svg width="123.27658" viewBox="1 -35.599998474121094 29.049999237060547 36" height="152.7696" data-palette-color="url(#f553e37c-c2e3-4d00-a241-336758e1b7fd)"></svg></g></svg></g></svg></g></svg></g><g></g></svg></g></svg></g></svg></g></svg></g><defs></defs><mask id="3cbf9b75-a108-4fd4-8426-51614c1f4541"><g id="SvgjsG1656"><svg viewBox="0 0 123.27658 247.2" height="247.2" width="123.27658"><g><svg></svg></g><g><svg viewBox="0 0 123.27658 247.2" height="247.2" width="123.27658"><g transform="matrix(1,0,0,1,0,47.215199999999996)"><svg viewBox="0 0 123.27658 152.7696" height="152.7696" width="123.27658"><g><svg viewBox="0 0 123.27658 152.7696" height="152.7696" width="123.27658"><g><svg viewBox="0 0 123.27658 152.7696" height="152.7696" width="123.27658"><g><svg viewBox="0 0 123.27658 152.7696" height="152.7696" width="123.27658"><g id="SvgjsG1655"><svg viewBox="0 0 123.27658 152.7696" height="152.7696" width="123.27658" id="SvgjsSvg1654"><g><svg viewBox="0 0 123.27658 152.7696" height="152.7696" width="123.27658"><g transform="matrix(1,0,0,1,0,0)"><svg width="123.27658" viewBox="1 -35.599998474121094 29.049999237060547 36" height="152.7696" data-palette-color="url(#f553e37c-c2e3-4d00-a241-336758e1b7fd)"><path d="M2.7-1.4L2.7-1.4 3.85-1.45Q4.9-1.45 5.6-3.2L5.6-3.2Q6.05-4.35 6.15-6.85 6.25-9.35 6.25-21.7L6.25-21.7 6.25-30.2Q6.25-31 5.75-32L5.75-32Q4.75-34.1 1.85-34.1L1.85-34.1Q1-34.1 1-34.7L1-34.7Q1-35.45 1.45-35.45L1.45-35.45 3.45-35.4 10.75-35.45 16.25-35.6Q20.8-35.6 23.85-33.43 26.9-31.25 26.9-27.25L26.9-27.25Q26.9-22.95 22.4-20.2L22.4-20.2Q21.9-19.85 21.9-19.8L21.9-19.8Q21.9-19.65 22.75-19.43 23.6-19.2 24.8-18.68 26-18.15 27.18-17.25 28.35-16.35 29.2-14.58 30.05-12.8 30.05-10.53 30.05-8.25 28.8-5.8 27.55-3.35 25.6-2 23.65-0.65 21.75-0.13 19.85 0.4 17.5 0.4 15.15 0.4 11.85 0.13 8.55-0.15 8.2-0.15L8.2-0.15 3.9 0.05 3.2 0.05Q2.15 0.05 2.15-0.68 2.15-1.4 2.7-1.4ZM10.1-10.2L10.1-6.8 10.05-4.6Q10.05-1.6 14.95-1.6L14.95-1.6 16.1-1.6Q18.8-1.6 20.78-1.93 22.75-2.25 24.28-4.3 25.8-6.35 25.8-9 25.8-11.65 24.9-13.43 24-15.2 22.85-16.1 21.7-17 20.1-17.5L20.1-17.5Q17.9-18.2 16-18.2L16-18.2 12.1-18.25 11.35-18.3Q10.9-18.3 10.7-18.18 10.5-18.05 10.3-17.2L10.3-17.2Q10.1-16.15 10.1-10.2L10.1-10.2ZM10.35-28.7L10.35-27.25Q10.35-20.95 10.7-20.25L10.7-20.25Q10.9-19.9 13.55-19.9L13.55-19.9 16.75-19.9Q19.9-19.9 21.48-21.55 23.05-23.2 23.05-25.9 23.05-28.6 20.43-31.23 17.8-33.85 12.95-33.85L12.95-33.85Q11.4-33.85 10.88-32.93 10.35-32 10.35-28.7L10.35-28.7Z" opacity="1" transform="matrix(1,0,0,1,0,0)" fill="white" class="wordmark-text-0" id="SvgjsPath1653"></path></svg></g></svg></g></svg></g></svg></g><g></g></svg></g></svg></g></svg></g><path d="M0 41.215L0 1 123.277 1 123.277 41.215 114.761 41.215 114.761 9.516 8.516 9.516 8.516 41.215 0 41.215M0 205.985L0 246.2 123.277 246.2 123.277 205.985 114.761 205.985 114.761 237.684 8.516 237.684 8.516 205.985 0 205.985" fill="white" stroke="transparent"></path></svg></g><defs><mask></mask></defs></svg></g></mask><linearGradient x1="0" x2="1" y1="0.5" y2="0.5" id="f553e37c-c2e3-4d00-a241-336758e1b7fd"><stop stop-color="#f00b51" offset="0"></stop><stop stop-color="#730062" offset="1"></stop></linearGradient><rect width="123.27658081054688" height="247.1999969482422" fill="#ffffff" mask="url(#3cbf9b75-a108-4fd4-8426-51614c1f4541)" data-fill-palette-color="primary"></rect></svg><rect width="123.27658" height="247.2" fill="none" stroke="none" visibility="hidden"></rect></g></svg></g></svg>